# Shadowborn original authored hip cloth preview v1
# Opaque low-poly front/back tabard + side wraps. Local to Hips bone.
o ShadowHipClothPreviewV1
s off

# front panel top / middle / torn hem (+Z)
v -0.185  0.045  0.135
v  0.185  0.045  0.135
v -0.175 -0.205  0.150
v  0.165 -0.195  0.152
v -0.145 -0.455  0.164
v -0.045 -0.565  0.172
v  0.050 -0.505  0.170
v  0.125 -0.420  0.162

# back panel top / middle / torn hem (-Z)
v -0.195  0.050 -0.135
v  0.195  0.050 -0.135
v -0.185 -0.220 -0.150
v  0.175 -0.205 -0.152
v -0.155 -0.525 -0.165
v -0.060 -0.610 -0.172
v  0.055 -0.545 -0.170
v  0.135 -0.445 -0.162

# side wrap control points
v -0.205 -0.035  0.080
v -0.205 -0.035 -0.080
v -0.195 -0.280  0.100
v -0.195 -0.300 -0.105
v  0.205 -0.030  0.080
v  0.205 -0.030 -0.080
v  0.190 -0.255  0.105
v  0.190 -0.275 -0.105

# front surface
f 1 2 4
f 1 4 3
f 3 4 8
f 3 8 5
f 5 8 7
f 5 7 6

# back surface, opposite winding
f 10 9 11
f 10 11 12
f 12 11 13
f 12 13 16
f 16 13 14
f 16 14 15

# left wrap
f 1 17 19
f 1 19 3
f 17 18 20
f 17 20 19
f 18 9 11
f 18 11 20
f 3 19 20
f 3 20 11

# right wrap
f 21 2 4
f 21 4 23
f 22 21 23
f 22 23 24
f 10 22 24
f 10 24 12
f 4 12 24
f 4 24 23

# upper waist bridge front/back to avoid card-like separation
f 9 10 2
f 9 2 1
f 9 1 17
f 10 22 2
