# Shadowborn original authored hood preview v2
# Camera-first revision after Run 66: lower/rounder crown, broader side cloth,
# real face opening, restrained asymmetric rear tail. Local to Head bone.
o ShadowHoodPreviewV2
s off

# lower outer ring
v -0.180 -0.190  0.125
v  0.172 -0.185  0.128
v -0.195 -0.185 -0.145
v  0.188 -0.180 -0.148

# mid outer ring
v -0.198  0.010  0.155
v  0.192  0.012  0.158
v -0.205  0.012 -0.158
v  0.200  0.015 -0.160

# upper outer ring
v -0.150  0.165  0.105
v  0.145  0.168  0.108
v -0.158  0.168 -0.118
v  0.152  0.170 -0.120

# flattened crown
v -0.078  0.245  0.020
v  0.074  0.246  0.020
v -0.070  0.235 -0.075
v  0.068  0.236 -0.076

# inner face rim, no polygon across this opening
v -0.118  0.070  0.205
v  0.116  0.072  0.207
v -0.100 -0.125  0.202
v  0.098 -0.122  0.204

# rear cloth tail
v -0.092 -0.050 -0.160
v  0.100 -0.045 -0.162
v  0.050 -0.255 -0.290
v -0.060 -0.285 -0.265

# outer side/back shell
f 1 5 7 3
f 2 4 8 6
f 3 7 8 4
f 5 9 11 7
f 6 8 12 10
f 7 11 12 8
f 9 13 15 11
f 10 12 16 14
f 11 15 16 12
f 13 14 16 15

# brow / face-rim shell, leaving central void open
f 5 6 18 17
f 5 17 19 1
f 6 2 20 18
f 1 19 20 2

# upper cheek-to-crown transitions
f 5 9 13 17
f 6 18 14 10
f 17 13 14 18
f 9 10 14 13

# rear tail integrated into nape
f 3 4 22 21
f 21 22 23 24
f 24 23 22 21
f 3 21 24
f 4 23 22
