# Shadowborn original authored cowl preview v1
# Compact opaque shoulder/cowl geometry for the temporary production-preview rig.
# Local to Chest BoneAttachment3D. +Z faces camera/front in the Shadow preview convention.
o ShadowCowlPreviewV1
s off

v -0.310  0.080  0.105
v  0.295  0.072  0.108
v -0.255 -0.105  0.145
v  0.235 -0.095  0.150
v -0.290  0.060 -0.130
v  0.278  0.052 -0.135
v -0.230 -0.130 -0.165
v  0.215 -0.120 -0.170
v -0.115  0.145  0.055
v  0.105  0.140  0.058
v -0.355 -0.020  0.020
v  0.335 -0.015  0.025
v -0.185 -0.185  0.070
v  0.155 -0.170  0.078

# upper mantle planes
f 1 2 10 9
f 5 9 10 6
f 1 9 5
f 2 6 10

# shoulder flares
f 11 1 3
f 11 3 13
f 2 12 14
f 2 14 4
f 5 11 13 7
f 12 6 8 14

# front/back lower cowl
f 3 4 14 13
f 7 13 14 8
f 1 2 4 3
f 5 7 8 6

# side closures
f 1 5 7 3
f 2 4 8 6
