# Shadowborn original authored starter sword mesh
s off
v 0.022000 -0.082500 0.000000
v 0.015556 -0.082500 0.015556
v 0.000000 -0.082500 0.022000
v -0.015556 -0.082500 0.015556
v -0.022000 -0.082500 0.000000
v -0.015556 -0.082500 -0.015556
v -0.000000 -0.082500 -0.022000
v 0.015556 -0.082500 -0.015556
v 0.022000 0.082500 0.000000
v 0.015556 0.082500 0.015556
v 0.000000 0.082500 0.022000
v -0.015556 0.082500 0.015556
v -0.022000 0.082500 0.000000
v -0.015556 0.082500 -0.015556
v -0.000000 0.082500 -0.022000
v 0.015556 0.082500 -0.015556
f 1 2 10 9
f 2 3 11 10
f 3 4 12 11
f 4 5 13 12
f 5 6 14 13
f 6 7 15 14
f 7 8 16 15
f 8 1 9 16
f 1 2 3 4 5 6 7 8
f 9 10 11 12 13 14 15 16
