# Shadowborn original authored starter sword mesh
s off
v -0.095000 0.073000 -0.015000
v 0.095000 0.073000 -0.015000
v 0.095000 0.101000 -0.015000
v -0.095000 0.101000 -0.015000
v -0.095000 0.073000 0.015000
v 0.095000 0.073000 0.015000
v 0.095000 0.101000 0.015000
v -0.095000 0.101000 0.015000
v -0.115500 0.071000 -0.013000
v -0.080500 0.071000 -0.013000
v -0.080500 0.093000 -0.013000
v -0.115500 0.093000 -0.013000
v -0.115500 0.071000 0.013000
v -0.080500 0.071000 0.013000
v -0.080500 0.093000 0.013000
v -0.115500 0.093000 0.013000
v -0.028000 0.070000 -0.026000
v 0.028000 0.070000 -0.026000
v 0.028000 0.090000 -0.026000
v -0.028000 0.090000 -0.026000
v -0.028000 0.070000 0.026000
v 0.028000 0.070000 0.026000
v 0.028000 0.090000 0.026000
v -0.028000 0.090000 0.026000
v 0.000000 -0.083000 0.000000
v 0.000000 -0.163000 0.000000
v 0.034000 -0.123000 0.000000
v -0.034000 -0.123000 0.000000
v 0.000000 -0.123000 0.027000
v 0.000000 -0.123000 -0.027000
f 1 2 3 4
f 5 8 7 6
f 1 5 6 2
f 2 6 7 3
f 3 7 8 4
f 5 1 4 8
f 9 10 11 12
f 13 16 15 14
f 9 13 14 10
f 10 14 15 11
f 11 15 16 12
f 13 9 12 16
f 17 18 19 20
f 21 24 23 22
f 17 21 22 18
f 18 22 23 19
f 19 23 24 20
f 21 17 20 24
f 25 27 29
f 25 29 28
f 25 28 30
f 25 30 27
f 26 29 27
f 26 28 29
f 26 30 28
f 26 27 30
