# Shadowborn original authored starter sword mesh
s off
v -0.043000 0.105000 -0.006500
v 0.043000 0.105000 -0.006500
v -0.043000 0.105000 0.006500
v 0.043000 0.105000 0.006500
v -0.041000 0.160000 -0.006300
v 0.041000 0.160000 -0.006300
v -0.041000 0.160000 0.006300
v 0.041000 0.160000 0.006300
v -0.031000 0.620000 -0.005500
v 0.031000 0.620000 -0.005500
v -0.031000 0.620000 0.005500
v 0.031000 0.620000 0.005500
v -0.020000 0.760000 -0.004500
v 0.020000 0.760000 -0.004500
v -0.020000 0.760000 0.004500
v 0.020000 0.760000 0.004500
v -0.000000 0.815000 -0.000500
v 0.000000 0.815000 -0.000500
v -0.000000 0.815000 0.000500
v 0.000000 0.815000 0.000500
f 1 5 6 2
f 3 4 8 7
f 1 3 7 5
f 2 6 8 4
f 5 9 10 6
f 7 8 12 11
f 5 7 11 9
f 6 10 12 8
f 9 13 14 10
f 11 12 16 15
f 9 11 15 13
f 10 14 16 12
f 13 17 18 14
f 15 16 20 19
f 13 15 19 17
f 14 18 20 16
f 1 2 4 3
