# Shadowborn original authored Grave Hound head preview v1
# Low-poly canine skull/flesh silhouette for the temporary quadruped rig.
# Local axes follow the current Head bone: +Y = muzzle/forward, X = width, Z = vertical.
o GraveHoundHeadPreviewV1
s off

# rear skull
v -0.190 -0.110 -0.115
v  0.190 -0.110 -0.115
v -0.205 -0.090  0.105
v  0.205 -0.090  0.105

# cranial dome / brow
v -0.155  0.050  0.165
v  0.155  0.050  0.165
v -0.175  0.070 -0.135
v  0.175  0.070 -0.135

# cheek / zygomatic width
v -0.185  0.145  0.080
v  0.185  0.145  0.080
v -0.160  0.155 -0.105
v  0.160  0.155 -0.105

# muzzle root
v -0.125  0.185  0.075
v  0.125  0.185  0.075
v -0.115  0.185 -0.085
v  0.115  0.185 -0.085

# muzzle end
v -0.078  0.390  0.050
v  0.078  0.390  0.050
v -0.068  0.390 -0.060
v  0.068  0.390 -0.060

# lower jaw / corpse sag
v -0.105  0.205 -0.110
v  0.105  0.205 -0.110
v -0.070  0.350 -0.115
v  0.070  0.350 -0.115

# crown and rear skull
f 1 2 4 3
f 3 4 6 5
f 1 3 5 7
f 2 8 6 4
f 1 7 8 2
f 7 5 6 8

# cheek transition
f 5 6 10 9
f 7 11 12 8
f 5 9 11 7
f 6 8 12 10

# muzzle bridge/sides
f 9 10 14 13
f 11 15 16 12
f 9 13 15 11
f 10 12 16 14

# muzzle taper
f 13 14 18 17
f 15 19 20 16
f 13 17 19 15
f 14 16 20 18
f 17 18 20 19

# lower jaw with slight downward separation
f 15 16 22 21
f 21 22 24 23
f 15 21 23 19
f 16 20 24 22
f 19 23 24 20
