# Shadowborn original production mesh
o AwakeningSlabHero
s 1
v -1.020000 0.100000 -0.480000
v -0.660000 0.100000 -0.560000
v 0.420000 0.100000 -0.540000
v 0.960000 0.100000 -0.420000
v 1.040000 0.100000 0.100000
v 0.860000 0.100000 0.500000
v -0.220000 0.100000 0.550000
v -0.820000 0.100000 0.460000
v -1.080000 0.100000 0.160000
v -1.020000 -0.060000 -0.480000
v -0.660000 -0.060000 -0.560000
v 0.420000 -0.060000 -0.540000
v 0.960000 -0.060000 -0.420000
v 1.040000 -0.060000 0.100000
v 0.860000 -0.060000 0.500000
v -0.220000 -0.060000 0.550000
v -0.820000 -0.060000 0.460000
v -1.080000 -0.060000 0.160000
v -0.057778 0.100000 -0.025556
v -0.057778 -0.060000 -0.025556
v -0.950000 0.150000 0.350000
v -0.520000 0.150000 0.430000
v -0.480000 0.150000 0.560000
v -0.910000 0.150000 0.500000
v -0.950000 0.105000 0.350000
v -0.520000 0.105000 0.430000
v -0.480000 0.105000 0.560000
v -0.910000 0.105000 0.500000
f 19 2 1
f 20 10 11
f 1 2 11
f 1 11 10
f 19 3 2
f 20 11 12
f 2 3 12
f 2 12 11
f 19 4 3
f 20 12 13
f 3 4 13
f 3 13 12
f 19 5 4
f 20 13 14
f 4 5 14
f 4 14 13
f 19 6 5
f 20 14 15
f 5 6 15
f 5 15 14
f 19 7 6
f 20 15 16
f 6 7 16
f 6 16 15
f 19 8 7
f 20 16 17
f 7 8 17
f 7 17 16
f 19 9 8
f 20 17 18
f 8 9 18
f 8 18 17
f 19 1 9
f 20 18 10
f 9 1 10
f 9 10 18
f 21 22 23
f 21 23 24
f 25 27 26
f 25 28 27
f 21 22 26
f 21 26 25
f 22 23 27
f 22 27 26
f 23 24 28
f 23 28 27
f 24 21 25
f 24 25 28
