# Shadowborn original production-preview mesh
o BoundaryWallRuinHero
s 1
v -0.374178 0.010000 -1.122142
v -0.154222 0.010000 -1.117742
v -0.154222 0.310000 -1.117742
v -0.374178 0.310000 -1.122142
v -0.385778 0.010000 -0.542258
v -0.165822 0.010000 -0.537858
v -0.165822 0.310000 -0.537858
v -0.385778 0.310000 -0.542258
v -0.387745 0.010000 -0.523936
v -0.177755 0.010000 -0.526036
v -0.177655 0.290000 -0.516037
v -0.387645 0.290000 -0.513937
v -0.382245 0.010000 0.026036
v -0.172255 0.010000 0.023936
v -0.172155 0.290000 0.033936
v -0.382145 0.290000 0.036036
v -0.380787 0.010000 0.048307
v -0.150813 0.010000 0.051756
v -0.150813 0.310000 0.051756
v -0.380787 0.310000 0.048307
v -0.389187 0.010000 0.608244
v -0.159213 0.010000 0.611693
v -0.159213 0.310000 0.611693
v -0.389187 0.310000 0.608244
v -0.390179 0.010000 0.642152
v -0.180221 0.010000 0.637952
v -0.180421 0.290000 0.627954
v -0.390379 0.290000 0.632154
v -0.379779 0.010000 1.162048
v -0.169821 0.010000 1.157848
v -0.170021 0.290000 1.147850
v -0.379979 0.290000 1.152050
v 0.165738 0.010000 -1.103318
v 0.385713 0.010000 -1.106618
v 0.385713 0.290000 -1.106618
v 0.165738 0.290000 -1.103318
v 0.174287 0.010000 -0.533382
v 0.394262 0.010000 -0.536682
v 0.394262 0.290000 -0.536682
v 0.174287 0.290000 -0.533382
v 0.170521 0.010000 -0.517045
v 0.380479 0.010000 -0.512845
v 0.380679 0.310000 -0.522843
v 0.170721 0.310000 -0.527043
v 0.159521 0.010000 0.032845
v 0.369479 0.010000 0.037045
v 0.369679 0.310000 0.027047
v 0.159721 0.310000 0.022847
v 0.167206 0.010000 0.061114
v 0.387195 0.010000 0.058914
v 0.387195 0.290000 0.058914
v 0.167206 0.290000 0.061114
v 0.172805 0.010000 0.621086
v 0.392794 0.010000 0.618886
v 0.392794 0.290000 0.618886
v 0.172805 0.290000 0.621086
v 0.168762 0.010000 0.658453
v 0.378738 0.010000 0.661603
v 0.378588 0.310000 0.671602
v 0.168612 0.310000 0.668452
v 0.161262 0.010000 1.158397
v 0.371238 0.010000 1.161547
v 0.371088 0.310000 1.171546
v 0.161112 0.310000 1.168396
v -0.377345 0.320000 -1.013938
v -0.167355 0.320000 -1.016038
v -0.157356 0.580000 -1.016138
v -0.367345 0.580000 -1.014038
v -0.372645 0.320000 -0.543962
v -0.162655 0.320000 -0.546062
v -0.152656 0.580000 -0.546162
v -0.362645 0.580000 -0.544062
v -0.386688 0.320000 -0.521625
v -0.166712 0.320000 -0.518325
v -0.176861 0.560000 -0.508476
v -0.396837 0.560000 -0.511776
v -0.393288 0.320000 -0.081675
v -0.173312 0.320000 -0.078375
v -0.183461 0.560000 -0.068526
v -0.403436 0.560000 -0.071826
v -0.380217 0.320000 0.012690
v -0.170282 0.320000 0.007441
v -0.170532 0.520000 -0.002556
v -0.380467 0.520000 0.002693
v -0.369718 0.320000 0.432559
v -0.159783 0.320000 0.427310
v -0.160033 0.520000 0.417313
v -0.369968 0.520000 0.422562
v -0.379254 0.295000 0.546936
v -0.169348 0.295000 0.553235
v -0.179344 0.445000 0.552935
v -0.389249 0.445000 0.546636
v -0.390652 0.295000 0.926765
v -0.180746 0.295000 0.933064
v -0.190742 0.445000 0.932764
v -0.400647 0.445000 0.926465
v 0.178387 0.320000 -1.026550
v 0.388363 0.320000 -1.023400
v 0.378364 0.540000 -1.023550
v 0.168388 0.540000 -1.026700
v 0.171637 0.320000 -0.576600
v 0.381613 0.320000 -0.573450
v 0.371614 0.540000 -0.573600
v 0.161638 0.540000 -0.576750
v 0.155422 0.320000 -0.537754
v 0.375378 0.320000 -0.542154
v 0.385176 0.600000 -0.552352
v 0.165220 0.600000 -0.547952
v 0.164622 0.320000 -0.077846
v 0.384578 0.320000 -0.082246
v 0.394376 0.600000 -0.092444
v 0.174420 0.600000 -0.088044
v 0.180032 0.310000 0.017438
v 0.389967 0.310000 0.022687
v 0.389717 0.470000 0.032684
v 0.179782 0.470000 0.027435
v 0.170033 0.310000 0.417313
v 0.379968 0.310000 0.422562
v 0.379718 0.470000 0.432559
v 0.169783 0.470000 0.427310
v -0.160471 0.090000 -0.822634
v 0.161575 0.090000 -0.750618
v 0.183275 0.310000 -0.756012
v -0.138771 0.310000 -0.828028
v -0.221575 0.090000 -0.549382
v 0.100471 0.090000 -0.477366
v 0.122171 0.310000 -0.482761
v -0.199875 0.310000 -0.554777
v -0.130982 0.080000 -0.323283
v 0.154718 0.080000 -0.414800
v 0.151296 0.280000 -0.392703
v -0.134405 0.280000 -0.301186
v -0.054718 0.080000 -0.085200
v 0.230982 0.080000 -0.176717
v 0.227560 0.280000 -0.154620
v -0.058140 0.280000 -0.063102
v -0.182544 0.080000 -0.025577
v 0.174867 0.080000 0.017519
v 0.204651 0.300000 0.021110
v -0.152760 0.300000 -0.021986
v -0.214867 0.080000 0.242481
v 0.142544 0.080000 0.285577
v 0.172329 0.300000 0.289169
v -0.185082 0.300000 0.246072
v -0.126144 0.080000 0.440024
v 0.144445 0.080000 0.368042
v 0.139303 0.260000 0.348714
v -0.131286 0.260000 0.420697
v -0.064445 0.080000 0.671958
v 0.206144 0.080000 0.599976
v 0.201003 0.260000 0.580648
v -0.069587 0.260000 0.652630
v -0.156170 0.075000 0.678823
v 0.135036 0.075000 0.785121
v 0.112820 0.245000 0.787657
v -0.178386 0.245000 0.681359
v -0.235036 0.075000 0.894879
v 0.056170 0.075000 1.001177
v 0.033953 0.245000 1.003713
v -0.257252 0.245000 0.897414
v -0.588589 0.010000 -0.297283
v -0.330692 0.010000 -0.188246
v -0.308376 0.190000 -0.189668
v -0.566273 0.190000 -0.298705
v -0.709308 0.010000 -0.011754
v -0.451411 0.010000 0.097283
v -0.429096 0.190000 0.095861
v -0.686993 0.190000 -0.013176
v -0.647271 0.010000 0.371169
v -0.420221 0.010000 0.293399
v -0.423200 0.170000 0.315560
v -0.650250 0.170000 0.393331
v -0.559779 0.010000 0.626601
v -0.332729 0.010000 0.548831
v -0.335709 0.170000 0.570992
v -0.562759 0.170000 0.648762
v 0.423841 0.010000 -0.705964
v 0.645509 0.010000 -0.644616
v 0.655146 0.150000 -0.641949
v 0.433479 0.150000 -0.703297
v 0.354491 0.010000 -0.455384
v 0.576159 0.010000 -0.394036
v 0.585796 0.150000 -0.391368
v 0.364129 0.150000 -0.452717
f 1 2 3 4
f 5 8 7 6
f 1 5 6 2
f 2 6 7 3
f 3 7 8 4
f 5 1 4 8
f 9 10 11 12
f 13 16 15 14
f 9 13 14 10
f 10 14 15 11
f 11 15 16 12
f 13 9 12 16
f 17 18 19 20
f 21 24 23 22
f 17 21 22 18
f 18 22 23 19
f 19 23 24 20
f 21 17 20 24
f 25 26 27 28
f 29 32 31 30
f 25 29 30 26
f 26 30 31 27
f 27 31 32 28
f 29 25 28 32
f 33 34 35 36
f 37 40 39 38
f 33 37 38 34
f 34 38 39 35
f 35 39 40 36
f 37 33 36 40
f 41 42 43 44
f 45 48 47 46
f 41 45 46 42
f 42 46 47 43
f 43 47 48 44
f 45 41 44 48
f 49 50 51 52
f 53 56 55 54
f 49 53 54 50
f 50 54 55 51
f 51 55 56 52
f 53 49 52 56
f 57 58 59 60
f 61 64 63 62
f 57 61 62 58
f 58 62 63 59
f 59 63 64 60
f 61 57 60 64
f 65 66 67 68
f 69 72 71 70
f 65 69 70 66
f 66 70 71 67
f 67 71 72 68
f 69 65 68 72
f 73 74 75 76
f 77 80 79 78
f 73 77 78 74
f 74 78 79 75
f 75 79 80 76
f 77 73 76 80
f 81 82 83 84
f 85 88 87 86
f 81 85 86 82
f 82 86 87 83
f 83 87 88 84
f 85 81 84 88
f 89 90 91 92
f 93 96 95 94
f 89 93 94 90
f 90 94 95 91
f 91 95 96 92
f 93 89 92 96
f 97 98 99 100
f 101 104 103 102
f 97 101 102 98
f 98 102 103 99
f 99 103 104 100
f 101 97 100 104
f 105 106 107 108
f 109 112 111 110
f 105 109 110 106
f 106 110 111 107
f 107 111 112 108
f 109 105 108 112
f 113 114 115 116
f 117 120 119 118
f 113 117 118 114
f 114 118 119 115
f 115 119 120 116
f 117 113 116 120
f 121 122 123 124
f 125 128 127 126
f 121 125 126 122
f 122 126 127 123
f 123 127 128 124
f 125 121 124 128
f 129 130 131 132
f 133 136 135 134
f 129 133 134 130
f 130 134 135 131
f 131 135 136 132
f 133 129 132 136
f 137 138 139 140
f 141 144 143 142
f 137 141 142 138
f 138 142 143 139
f 139 143 144 140
f 141 137 140 144
f 145 146 147 148
f 149 152 151 150
f 145 149 150 146
f 146 150 151 147
f 147 151 152 148
f 149 145 148 152
f 153 154 155 156
f 157 160 159 158
f 153 157 158 154
f 154 158 159 155
f 155 159 160 156
f 157 153 156 160
f 161 162 163 164
f 165 168 167 166
f 161 165 166 162
f 162 166 167 163
f 163 167 168 164
f 165 161 164 168
f 169 170 171 172
f 173 176 175 174
f 169 173 174 170
f 170 174 175 171
f 171 175 176 172
f 173 169 172 176
f 177 178 179 180
f 181 184 183 182
f 177 181 182 178
f 178 182 183 179
f 179 183 184 180
f 181 177 180 184
