# Shadowborn original production mesh
o BrokenArchHero
s 1
v -1.180000 0.000000 0.220000
v -0.740000 0.000000 0.220000
v -0.720000 1.650000 0.220000
v -0.820000 1.720000 0.220000
v -1.120000 1.580000 0.220000
v -1.180000 0.000000 -0.220000
v -0.740000 0.000000 -0.220000
v -0.720000 1.650000 -0.220000
v -0.820000 1.720000 -0.220000
v -1.120000 1.580000 -0.220000
v -0.916000 0.990000 0.220000
v -0.916000 0.990000 -0.220000
v 0.740000 0.000000 0.220000
v 1.180000 0.000000 0.220000
v 1.100000 1.480000 0.220000
v 1.000000 1.660000 0.220000
v 0.760000 1.610000 0.220000
v 0.740000 0.000000 -0.220000
v 1.180000 0.000000 -0.220000
v 1.100000 1.480000 -0.220000
v 1.000000 1.660000 -0.220000
v 0.760000 1.610000 -0.220000
v 0.956000 0.950000 0.220000
v 0.956000 0.950000 -0.220000
v 1.098000 1.620000 0.230000
v 1.022820 1.940048 0.230000
v 0.695057 1.855078 0.230000
v 0.737200 1.620000 0.230000
v 1.098000 1.620000 -0.230000
v 1.022820 1.940048 -0.230000
v 0.695057 1.855078 -0.230000
v 0.737200 1.620000 -0.230000
v 0.888269 1.758781 0.230000
v 0.888269 1.758781 -0.230000
v 1.024738 1.940612 0.230000
v 0.918649 2.248225 0.230000
v 0.618153 2.076733 0.230000
v 0.695824 1.855303 0.230000
v 1.024738 1.940612 -0.230000
v 0.918649 2.248225 -0.230000
v 0.618153 2.076733 -0.230000
v 0.695824 1.855303 -0.230000
v 0.814341 2.030218 0.230000
v 0.814341 2.030218 -0.230000
v 0.923696 2.251468 0.230000
v 0.715108 2.498181 0.230000
v 0.481192 2.258457 0.230000
v 0.620172 2.078031 0.230000
v 0.923696 2.251468 -0.230000
v 0.715108 2.498181 -0.230000
v 0.481192 2.258457 -0.230000
v 0.620172 2.078031 -0.230000
v 0.685042 2.271534 0.230000
v 0.685042 2.271534 -0.230000
v 0.699391 2.480043 0.230000
v 0.442832 2.653342 0.230000
v 0.300927 2.378997 0.230000
v 0.474905 2.251202 0.230000
v 0.699391 2.480043 -0.230000
v 0.442832 2.653342 -0.230000
v 0.300927 2.378997 -0.230000
v 0.474905 2.251202 -0.230000
v 0.479514 2.440896 0.230000
v 0.479514 2.440896 -0.230000
v 0.456126 2.682450 0.230000
v 0.155408 2.770173 0.230000
v 0.104573 2.456201 0.230000
v 0.306244 2.390640 0.230000
v 0.456126 2.682450 -0.230000
v 0.155408 2.770173 -0.230000
v 0.104573 2.456201 -0.230000
v 0.306244 2.390640 -0.230000
v 0.255588 2.574866 0.230000
v 0.255588 2.574866 -0.230000
v 0.151992 2.746417 0.230000
v -0.155408 2.770173 0.230000
v -0.104573 2.456201 0.230000
v 0.103207 2.446699 0.230000
v 0.151992 2.746417 -0.230000
v -0.155408 2.770173 -0.230000
v -0.104573 2.456201 -0.230000
v 0.103207 2.446699 -0.230000
v -0.001195 2.604872 0.230000
v -0.001195 2.604872 -0.230000
v -0.156262 2.776111 0.230000
v -0.442832 2.653342 0.230000
v -0.300927 2.378997 0.230000
v -0.104914 2.458577 0.230000
v -0.156262 2.776111 -0.230000
v -0.442832 2.653342 -0.230000
v -0.300927 2.378997 -0.230000
v -0.104914 2.458577 -0.230000
v -0.251234 2.566757 0.230000
v -0.251234 2.566757 -0.230000
v -0.443663 2.655161 0.230000
v -0.715108 2.498181 0.230000
v -0.481192 2.258457 0.230000
v -0.301259 2.379725 0.230000
v -0.443663 2.655161 -0.230000
v -0.715108 2.498181 -0.230000
v -0.481192 2.258457 -0.230000
v -0.301259 2.379725 -0.230000
v -0.485305 2.447881 0.230000
v -0.485305 2.447881 -0.230000
v -0.898459 2.235249 0.230000
v -1.022820 1.940048 0.230000
v -0.695057 1.855078 0.230000
v -0.610077 2.071543 0.230000
v -0.898459 2.235249 -0.230000
v -1.022820 1.940048 -0.230000
v -0.695057 1.855078 -0.230000
v -0.610077 2.071543 -0.230000
v -0.806603 2.025480 0.230000
v -0.806603 2.025480 -0.230000
v -1.053523 1.949064 0.230000
v -1.092000 1.620000 0.230000
v -0.734800 1.620000 0.230000
v -0.707338 1.858684 0.230000
v -1.053523 1.949064 -0.230000
v -1.092000 1.620000 -0.230000
v -0.734800 1.620000 -0.230000
v -0.707338 1.858684 -0.230000
v -0.896915 1.761937 0.230000
v -0.896915 1.761937 -0.230000
v -1.420000 0.000000 0.280000
v -1.080000 0.000000 0.280000
v -1.040000 0.280000 0.280000
v -1.310000 0.340000 0.280000
v -1.420000 0.000000 -0.260000
v -1.080000 0.000000 -0.260000
v -1.040000 0.280000 -0.260000
v -1.310000 0.340000 -0.260000
v -1.212500 0.155000 0.280000
v -1.212500 0.155000 -0.260000
v 1.030000 0.000000 0.270000
v 1.440000 0.000000 0.270000
v 1.380000 0.230000 0.270000
v 1.110000 0.300000 0.270000
v 1.030000 0.000000 -0.250000
v 1.440000 0.000000 -0.250000
v 1.380000 0.230000 -0.250000
v 1.110000 0.300000 -0.250000
v 1.240000 0.132500 0.270000
v 1.240000 0.132500 -0.250000
f 11 1 2
f 12 7 6
f 1 6 7
f 1 7 2
f 11 2 3
f 12 8 7
f 2 7 8
f 2 8 3
f 11 3 4
f 12 9 8
f 3 8 9
f 3 9 4
f 11 4 5
f 12 10 9
f 4 9 10
f 4 10 5
f 11 5 1
f 12 6 10
f 5 10 6
f 5 6 1
f 23 13 14
f 24 19 18
f 13 18 19
f 13 19 14
f 23 14 15
f 24 20 19
f 14 19 20
f 14 20 15
f 23 15 16
f 24 21 20
f 15 20 21
f 15 21 16
f 23 16 17
f 24 22 21
f 16 21 22
f 16 22 17
f 23 17 13
f 24 18 22
f 17 22 18
f 17 18 13
f 33 25 26
f 34 30 29
f 25 29 30
f 25 30 26
f 33 26 27
f 34 31 30
f 26 30 31
f 26 31 27
f 33 27 28
f 34 32 31
f 27 31 32
f 27 32 28
f 33 28 25
f 34 29 32
f 28 32 29
f 28 29 25
f 43 35 36
f 44 40 39
f 35 39 40
f 35 40 36
f 43 36 37
f 44 41 40
f 36 40 41
f 36 41 37
f 43 37 38
f 44 42 41
f 37 41 42
f 37 42 38
f 43 38 35
f 44 39 42
f 38 42 39
f 38 39 35
f 53 45 46
f 54 50 49
f 45 49 50
f 45 50 46
f 53 46 47
f 54 51 50
f 46 50 51
f 46 51 47
f 53 47 48
f 54 52 51
f 47 51 52
f 47 52 48
f 53 48 45
f 54 49 52
f 48 52 49
f 48 49 45
f 63 55 56
f 64 60 59
f 55 59 60
f 55 60 56
f 63 56 57
f 64 61 60
f 56 60 61
f 56 61 57
f 63 57 58
f 64 62 61
f 57 61 62
f 57 62 58
f 63 58 55
f 64 59 62
f 58 62 59
f 58 59 55
f 73 65 66
f 74 70 69
f 65 69 70
f 65 70 66
f 73 66 67
f 74 71 70
f 66 70 71
f 66 71 67
f 73 67 68
f 74 72 71
f 67 71 72
f 67 72 68
f 73 68 65
f 74 69 72
f 68 72 69
f 68 69 65
f 83 75 76
f 84 80 79
f 75 79 80
f 75 80 76
f 83 76 77
f 84 81 80
f 76 80 81
f 76 81 77
f 83 77 78
f 84 82 81
f 77 81 82
f 77 82 78
f 83 78 75
f 84 79 82
f 78 82 79
f 78 79 75
f 93 85 86
f 94 90 89
f 85 89 90
f 85 90 86
f 93 86 87
f 94 91 90
f 86 90 91
f 86 91 87
f 93 87 88
f 94 92 91
f 87 91 92
f 87 92 88
f 93 88 85
f 94 89 92
f 88 92 89
f 88 89 85
f 103 95 96
f 104 100 99
f 95 99 100
f 95 100 96
f 103 96 97
f 104 101 100
f 96 100 101
f 96 101 97
f 103 97 98
f 104 102 101
f 97 101 102
f 97 102 98
f 103 98 95
f 104 99 102
f 98 102 99
f 98 99 95
f 113 105 106
f 114 110 109
f 105 109 110
f 105 110 106
f 113 106 107
f 114 111 110
f 106 110 111
f 106 111 107
f 113 107 108
f 114 112 111
f 107 111 112
f 107 112 108
f 113 108 105
f 114 109 112
f 108 112 109
f 108 109 105
f 123 115 116
f 124 120 119
f 115 119 120
f 115 120 116
f 123 116 117
f 124 121 120
f 116 120 121
f 116 121 117
f 123 117 118
f 124 122 121
f 117 121 122
f 117 122 118
f 123 118 115
f 124 119 122
f 118 122 119
f 118 119 115
f 133 125 126
f 134 130 129
f 125 129 130
f 125 130 126
f 133 126 127
f 134 131 130
f 126 130 131
f 126 131 127
f 133 127 128
f 134 132 131
f 127 131 132
f 127 132 128
f 133 128 125
f 134 129 132
f 128 132 129
f 128 129 125
f 143 135 136
f 144 140 139
f 135 139 140
f 135 140 136
f 143 136 137
f 144 141 140
f 136 140 141
f 136 141 137
f 143 137 138
f 144 142 141
f 137 141 142
f 137 142 138
f 143 138 135
f 144 139 142
f 138 142 139
f 138 139 135
