# Shadowborn original low-poly grave marker
o GraveMarkerHero
v -0.48 0 -0.14
v 0.48 0 -0.14
v 0.48 0 0.14
v -0.48 0 0.14
v -0.36 0.18 -0.11
v 0.36 0.18 -0.11
v 0.36 0.18 0.11
v -0.36 0.18 0.11
v -0.31 1.00 -0.09
v 0.29 1.00 -0.09
v 0.29 1.00 0.09
v -0.31 1.00 0.09
v -0.23 1.17 -0.08
v 0.18 1.13 -0.08
v 0.18 1.13 0.08
v -0.23 1.17 0.08
v -0.12 1.31 -0.07
v 0.06 1.27 -0.07
v 0.06 1.27 0.07
v -0.12 1.31 0.07
f 1 2 3 4
f 1 5 6 2
f 2 6 7 3
f 3 7 8 4
f 4 8 5 1
f 5 9 10 6
f 6 10 11 7
f 7 11 12 8
f 8 12 9 5
f 9 13 14 10
f 10 14 15 11
f 11 15 16 12
f 12 16 13 9
f 13 17 18 14
f 14 18 19 15
f 15 19 20 16
f 16 20 17 13
f 17 20 19 18
