# Shadowborn original production-preview mesh
o RubbleClusterHero
s 1
v -1.004963 0.010000 -0.250744
v -0.399496 0.010000 -0.043356
v -0.364634 0.310000 -0.052556
v -0.970101 0.310000 -0.259943
v -1.160504 0.010000 0.203356
v -0.555037 0.010000 0.410744
v -0.520175 0.310000 0.401544
v -1.125642 0.310000 0.194157
v -0.495845 0.010000 -0.238587
v -0.055627 0.010000 -0.429919
v -0.069983 0.230000 -0.412776
v -0.510201 0.230000 -0.221443
v -0.344373 0.010000 0.109919
v 0.095845 0.010000 -0.081413
v 0.081488 0.230000 -0.064270
v -0.358730 0.230000 0.127063
v 0.054072 0.010000 -0.168364
v 0.624701 0.010000 -0.064527
v 0.639007 0.290000 -0.031431
v 0.068378 0.290000 -0.135268
v -0.024701 0.010000 0.264527
v 0.545928 0.010000 0.368364
v 0.560234 0.290000 0.401460
v -0.010395 0.290000 0.297623
v 0.529596 0.010000 -0.197465
v 0.934380 0.010000 -0.309492
v 0.919408 0.210000 -0.326100
v 0.514624 0.210000 -0.214073
v 0.625620 0.010000 0.149492
v 1.030404 0.010000 0.037465
v 1.015431 0.210000 0.020857
v 0.610647 0.210000 0.132884
v -0.718818 0.170000 -0.196039
v -0.261116 0.170000 -0.241963
v -0.219319 0.510000 -0.226056
v -0.677021 0.510000 -0.180132
v -0.678884 0.170000 0.201963
v -0.221182 0.170000 0.156039
v -0.179386 0.510000 0.171946
v -0.637087 0.510000 0.217869
v -0.019745 0.150000 -0.303598
v 0.446203 0.150000 -0.072745
v 0.423761 0.470000 -0.095023
v -0.042187 0.470000 -0.325877
v -0.206203 0.150000 0.072745
v 0.259745 0.150000 0.303598
v 0.237302 0.470000 0.281319
v -0.228645 0.470000 0.050466
v 0.320645 0.150000 -0.003122
v 0.650416 0.150000 -0.191936
v 0.677710 0.410000 -0.184518
v 0.347939 0.410000 0.004297
v 0.489584 0.150000 0.291936
v 0.819355 0.150000 0.103122
v 0.846649 0.410000 0.110541
v 0.516878 0.410000 0.299355
v -0.208284 0.410000 -0.220967
v 0.121971 0.410000 -0.140148
v 0.155866 0.650000 -0.152444
v -0.174389 0.650000 -0.233263
v -0.281971 0.410000 0.080148
v 0.048284 0.410000 0.160967
v 0.082178 0.650000 0.148671
v -0.248077 0.650000 0.067852
v 0.186259 0.370000 -0.089152
v 0.480860 0.370000 -0.145809
v 0.464997 0.590000 -0.122392
v 0.170396 0.590000 -0.065734
v 0.239140 0.370000 0.185809
v 0.533741 0.370000 0.129152
v 0.517878 0.590000 0.152569
v 0.223277 0.590000 0.209227
f 1 2 3 4
f 5 8 7 6
f 1 5 6 2
f 2 6 7 3
f 3 7 8 4
f 5 1 4 8
f 9 10 11 12
f 13 16 15 14
f 9 13 14 10
f 10 14 15 11
f 11 15 16 12
f 13 9 12 16
f 17 18 19 20
f 21 24 23 22
f 17 21 22 18
f 18 22 23 19
f 19 23 24 20
f 21 17 20 24
f 25 26 27 28
f 29 32 31 30
f 25 29 30 26
f 26 30 31 27
f 27 31 32 28
f 29 25 28 32
f 33 34 35 36
f 37 40 39 38
f 33 37 38 34
f 34 38 39 35
f 35 39 40 36
f 37 33 36 40
f 41 42 43 44
f 45 48 47 46
f 41 45 46 42
f 42 46 47 43
f 43 47 48 44
f 45 41 44 48
f 49 50 51 52
f 53 56 55 54
f 49 53 54 50
f 50 54 55 51
f 51 55 56 52
f 53 49 52 56
f 57 58 59 60
f 61 64 63 62
f 57 61 62 58
f 58 62 63 59
f 59 63 64 60
f 61 57 60 64
f 65 66 67 68
f 69 72 71 70
f 65 69 70 66
f 66 70 71 67
f 67 71 72 68
f 69 65 68 72
