# Shadowborn original production-preview mesh
o WallFragmentHero
s 1
v -2.749123 0.020000 -0.298162
v -1.969474 0.020000 -0.321559
v -1.969174 0.420000 -0.311563
v -2.748823 0.420000 -0.288167
v -2.730526 0.020000 0.321559
v -1.950877 0.020000 0.298162
v -1.950577 0.420000 0.308158
v -2.730226 0.420000 0.331554
v -1.903918 0.020000 -0.298139
v -1.084082 0.020000 -0.281741
v -1.074084 0.440000 -0.281541
v -1.893920 0.440000 -0.297939
v -1.915918 0.020000 0.301741
v -1.096082 0.020000 0.318139
v -1.086084 0.440000 0.318339
v -1.905920 0.440000 0.301941
v -1.033178 0.020000 -0.325684
v -0.173221 0.020000 -0.334284
v -0.183121 0.420000 -0.324184
v -1.043078 0.420000 -0.315585
v -1.026779 0.020000 0.314284
v -0.166822 0.020000 0.305684
v -0.176721 0.420000 0.315784
v -1.036678 0.420000 0.324383
v -0.121927 0.020000 -0.309535
v 0.788027 0.020000 -0.300435
v 0.788127 0.440000 -0.310434
v -0.121827 0.440000 -0.319534
v -0.128027 0.020000 0.300435
v 0.781927 0.020000 0.309535
v 0.782027 0.440000 0.299535
v -0.127927 0.440000 0.290435
v 0.853788 0.020000 -0.296138
v 1.733612 0.020000 -0.313736
v 1.743610 0.420000 -0.313936
v 0.863786 0.420000 -0.296338
v 0.866388 0.020000 0.333736
v 1.746212 0.020000 0.316138
v 1.756210 0.420000 0.315938
v 0.876386 0.420000 0.333536
v 1.819183 0.020000 -0.322163
v 2.638814 0.020000 -0.297567
v 2.628519 0.440000 -0.287871
v 1.808888 0.440000 -0.312468
v 1.801186 0.020000 0.277567
v 2.620817 0.020000 0.302163
v 2.610521 0.440000 0.311859
v 1.790890 0.440000 0.287262
v -2.655521 0.450000 -0.302167
v -1.695629 0.450000 -0.287767
v -1.685630 0.830000 -0.287617
v -2.645522 0.830000 -0.302017
v -2.664371 0.450000 0.287767
v -1.704479 0.450000 0.302167
v -1.694480 0.830000 0.302317
v -2.654372 0.830000 0.287917
v -1.636102 0.440000 -0.290139
v -0.656298 0.440000 -0.309737
v -0.656098 0.820000 -0.299739
v -1.635902 0.820000 -0.280141
v -1.623702 0.440000 0.329737
v -0.643898 0.440000 0.310139
v -0.643698 0.820000 0.320137
v -1.623502 0.820000 0.339735
v -0.566975 0.440000 -0.314985
v 0.432975 0.440000 -0.304985
v 0.432975 0.840000 -0.304985
v -0.566975 0.840000 -0.314985
v -0.572975 0.440000 0.284985
v 0.426975 0.440000 0.294985
v 0.426975 0.840000 0.294985
v -0.572975 0.840000 0.284985
v 0.486257 0.440000 -0.308857
v 1.506183 0.440000 -0.321097
v 1.516063 0.820000 -0.331216
v 0.496136 0.820000 -0.318977
v 0.493817 0.440000 0.321097
v 1.513743 0.440000 0.308857
v 1.523622 0.820000 0.298738
v 0.503696 0.820000 0.310978
v 1.626192 0.440000 -0.304138
v 2.546008 0.440000 -0.285740
v 2.535810 0.840000 -0.275942
v 1.615994 0.840000 -0.294340
v 1.613992 0.440000 0.305740
v 2.533808 0.440000 0.324138
v 2.523610 0.840000 0.333936
v 1.603794 0.840000 0.315538
v -2.735922 0.850000 -0.292141
v -1.956078 0.850000 -0.307739
v -1.946080 1.230000 -0.307939
v -2.725924 1.230000 -0.292341
v -2.723922 0.850000 0.307739
v -1.944078 0.850000 0.292141
v -1.934080 1.230000 0.291941
v -2.713924 1.230000 0.307539
v -1.883716 0.850000 -0.328337
v -1.043884 0.850000 -0.311539
v -1.043684 1.250000 -0.321537
v -1.883516 1.250000 -0.338335
v -1.896116 0.850000 0.291539
v -1.056284 0.850000 0.308337
v -1.056084 1.250000 0.298339
v -1.895916 1.250000 0.281541
v -0.992928 0.850000 -0.280585
v -0.112972 0.850000 -0.289385
v -0.122871 1.230000 -0.279286
v -1.002827 1.230000 -0.270486
v -0.987028 0.850000 0.309385
v -0.107072 0.850000 0.300585
v -0.116972 1.230000 0.310685
v -0.996928 1.230000 0.319485
v -0.055220 0.850000 -0.322314
v 0.924670 0.850000 -0.307615
v 0.934669 1.250000 -0.307465
v -0.045221 1.250000 -0.322164
v -0.064670 0.850000 0.307615
v 0.915220 0.850000 0.322314
v 0.925219 1.250000 0.322464
v -0.054671 1.250000 0.307765
v 1.014092 0.850000 -0.300741
v 1.933908 0.850000 -0.319139
v 1.933708 1.230000 -0.329137
v 1.013892 1.230000 -0.310739
v 1.026092 0.850000 0.299139
v 1.945908 0.850000 0.280741
v 1.945708 1.230000 0.270743
v 1.025892 1.230000 0.289141
v 1.997721 0.850000 -0.302654
v 2.617527 0.850000 -0.287155
v 2.607280 1.250000 -0.277409
v 1.987474 1.250000 -0.292907
v 1.982473 0.850000 0.307155
v 2.602279 0.850000 0.322654
v 2.592032 1.250000 0.332401
v 1.972226 1.250000 0.316902
v -2.655446 1.270000 -0.307166
v -1.695554 1.270000 -0.292767
v -1.680556 1.650000 -0.292542
v -2.640448 1.650000 -0.306941
v -2.664446 1.270000 0.292767
v -1.704554 1.270000 0.307166
v -1.689556 1.650000 0.307391
v -2.649448 1.650000 0.292992
v -1.635499 1.270000 -0.310950
v -0.635661 1.270000 -0.328949
v -0.635931 1.670000 -0.343947
v -1.635769 1.670000 -0.325948
v -1.624339 1.270000 0.308949
v -0.624501 1.270000 0.290950
v -0.624771 1.670000 0.275953
v -1.624609 1.670000 0.293952
v -0.546925 1.270000 -0.309985
v 0.453025 1.270000 -0.299985
v 0.452925 1.650000 -0.289985
v -0.547025 1.650000 -0.299985
v -0.553025 1.270000 0.299985
v 0.446925 1.270000 0.309985
v 0.446825 1.650000 0.319984
v -0.553125 1.650000 0.309984
v 0.832613 1.270000 -0.280907
v 1.552388 1.270000 -0.298905
v 1.532395 1.630000 -0.298405
v 0.812620 1.630000 -0.280407
v 0.847612 1.270000 0.318905
v 1.567387 1.270000 0.300907
v 1.547393 1.630000 0.301407
v 0.827618 1.630000 0.319405
v 1.659020 1.270000 -0.316266
v 2.418678 1.270000 -0.293469
v 2.408232 1.610000 -0.278776
v 1.648574 1.610000 -0.301572
v 1.641322 1.270000 0.273469
v 2.400980 1.270000 0.296266
v 2.390535 1.610000 0.310959
v 1.630877 1.610000 0.288162
v -2.704309 1.690000 -0.284568
v -1.984390 1.690000 -0.295367
v -1.969542 2.050000 -0.305591
v -2.689461 2.050000 -0.294791
v -2.695610 1.690000 0.295367
v -1.975691 1.690000 0.284568
v -1.960842 2.050000 0.274344
v -2.680761 2.050000 0.285143
v -1.913924 1.690000 -0.317539
v -1.154076 1.690000 -0.302341
v -1.144078 2.070000 -0.302141
v -1.903926 2.070000 -0.317340
v -1.925924 1.690000 0.282341
v -1.166076 1.690000 0.297539
v -1.156078 2.070000 0.297739
v -1.915926 2.070000 0.282540
v -1.107252 1.690000 -0.275159
v -0.327496 1.690000 -0.294657
v -0.342241 2.030000 -0.284285
v -1.121998 2.030000 -0.264787
v -1.092504 1.690000 0.314657
v -0.312748 1.690000 0.295159
v -0.327493 2.030000 0.305531
v -1.107249 2.030000 0.325029
v -0.243814 1.680000 -0.313538
v 0.616014 1.680000 -0.296340
v 0.616314 2.020000 -0.311337
v -0.243514 2.020000 -0.328535
v -0.256014 1.680000 0.296340
v 0.603814 1.680000 0.313538
v 0.604114 2.020000 0.298541
v -0.255714 2.020000 0.281343
v 1.108819 1.640000 -0.283975
v 1.648387 1.640000 -0.305569
v 1.624007 1.920000 -0.289581
v 1.084439 1.920000 -0.267987
v 1.131613 1.640000 0.285569
v 1.671181 1.640000 0.263975
v 1.646801 1.920000 0.279963
v 1.107233 1.920000 0.301557
v -2.581426 2.080000 -0.291572
v -1.801777 2.080000 -0.268176
v -1.781786 2.400000 -0.267576
v -2.561435 2.400000 -0.290972
v -2.598223 2.080000 0.268176
v -1.818574 2.080000 0.291572
v -1.798583 2.400000 0.292172
v -2.578232 2.400000 0.268776
v -1.747124 2.070000 -0.269910
v -0.947374 2.070000 -0.289908
v -0.946999 2.370000 -0.274913
v -1.746749 2.370000 -0.254915
v -1.732626 2.070000 0.309908
v -0.932876 2.070000 0.289910
v -0.932501 2.370000 0.304906
v -1.732251 2.370000 0.324904
v -0.829963 2.040000 -0.303476
v -0.050441 2.040000 -0.276181
v -0.070079 2.320000 -0.286875
v -0.849601 2.320000 -0.314169
v -0.849559 2.040000 0.256181
v -0.070037 2.040000 0.283476
v -0.089675 2.320000 0.272782
v -0.869197 2.320000 0.245488
v -2.380533 2.430000 -0.256588
v -1.721061 2.430000 -0.282981
v -1.695681 2.690000 -0.273988
v -2.355153 2.690000 -0.247595
v -2.358939 2.430000 0.282981
v -1.699467 2.430000 0.256588
v -1.674087 2.690000 0.265580
v -2.333559 2.690000 0.291973
v -1.631894 2.410000 -0.285379
v -0.932209 2.410000 -0.264382
v -0.941754 2.650000 -0.279676
v -1.641439 2.650000 -0.300672
v -1.647791 2.410000 0.244382
v -0.948106 2.410000 0.265379
v -0.957652 2.650000 0.250086
v -1.657337 2.650000 0.229089
f 1 2 3 4
f 5 8 7 6
f 1 5 6 2
f 2 6 7 3
f 3 7 8 4
f 5 1 4 8
f 9 10 11 12
f 13 16 15 14
f 9 13 14 10
f 10 14 15 11
f 11 15 16 12
f 13 9 12 16
f 17 18 19 20
f 21 24 23 22
f 17 21 22 18
f 18 22 23 19
f 19 23 24 20
f 21 17 20 24
f 25 26 27 28
f 29 32 31 30
f 25 29 30 26
f 26 30 31 27
f 27 31 32 28
f 29 25 28 32
f 33 34 35 36
f 37 40 39 38
f 33 37 38 34
f 34 38 39 35
f 35 39 40 36
f 37 33 36 40
f 41 42 43 44
f 45 48 47 46
f 41 45 46 42
f 42 46 47 43
f 43 47 48 44
f 45 41 44 48
f 49 50 51 52
f 53 56 55 54
f 49 53 54 50
f 50 54 55 51
f 51 55 56 52
f 53 49 52 56
f 57 58 59 60
f 61 64 63 62
f 57 61 62 58
f 58 62 63 59
f 59 63 64 60
f 61 57 60 64
f 65 66 67 68
f 69 72 71 70
f 65 69 70 66
f 66 70 71 67
f 67 71 72 68
f 69 65 68 72
f 73 74 75 76
f 77 80 79 78
f 73 77 78 74
f 74 78 79 75
f 75 79 80 76
f 77 73 76 80
f 81 82 83 84
f 85 88 87 86
f 81 85 86 82
f 82 86 87 83
f 83 87 88 84
f 85 81 84 88
f 89 90 91 92
f 93 96 95 94
f 89 93 94 90
f 90 94 95 91
f 91 95 96 92
f 93 89 92 96
f 97 98 99 100
f 101 104 103 102
f 97 101 102 98
f 98 102 103 99
f 99 103 104 100
f 101 97 100 104
f 105 106 107 108
f 109 112 111 110
f 105 109 110 106
f 106 110 111 107
f 107 111 112 108
f 109 105 108 112
f 113 114 115 116
f 117 120 119 118
f 113 117 118 114
f 114 118 119 115
f 115 119 120 116
f 117 113 116 120
f 121 122 123 124
f 125 128 127 126
f 121 125 126 122
f 122 126 127 123
f 123 127 128 124
f 125 121 124 128
f 129 130 131 132
f 133 136 135 134
f 129 133 134 130
f 130 134 135 131
f 131 135 136 132
f 133 129 132 136
f 137 138 139 140
f 141 144 143 142
f 137 141 142 138
f 138 142 143 139
f 139 143 144 140
f 141 137 140 144
f 145 146 147 148
f 149 152 151 150
f 145 149 150 146
f 146 150 151 147
f 147 151 152 148
f 149 145 148 152
f 153 154 155 156
f 157 160 159 158
f 153 157 158 154
f 154 158 159 155
f 155 159 160 156
f 157 153 156 160
f 161 162 163 164
f 165 168 167 166
f 161 165 166 162
f 162 166 167 163
f 163 167 168 164
f 165 161 164 168
f 169 170 171 172
f 173 176 175 174
f 169 173 174 170
f 170 174 175 171
f 171 175 176 172
f 173 169 172 176
f 177 178 179 180
f 181 184 183 182
f 177 181 182 178
f 178 182 183 179
f 179 183 184 180
f 181 177 180 184
f 185 186 187 188
f 189 192 191 190
f 185 189 190 186
f 186 190 191 187
f 187 191 192 188
f 189 185 188 192
f 193 194 195 196
f 197 200 199 198
f 193 197 198 194
f 194 198 199 195
f 195 199 200 196
f 197 193 196 200
f 201 202 203 204
f 205 208 207 206
f 201 205 206 202
f 202 206 207 203
f 203 207 208 204
f 205 201 204 208
f 209 210 211 212
f 213 216 215 214
f 209 213 214 210
f 210 214 215 211
f 211 215 216 212
f 213 209 212 216
f 217 218 219 220
f 221 224 223 222
f 217 221 222 218
f 218 222 223 219
f 219 223 224 220
f 221 217 220 224
f 225 226 227 228
f 229 232 231 230
f 225 229 230 226
f 226 230 231 227
f 227 231 232 228
f 229 225 228 232
f 233 234 235 236
f 237 240 239 238
f 233 237 238 234
f 234 238 239 235
f 235 239 240 236
f 237 233 236 240
f 241 242 243 244
f 245 248 247 246
f 241 245 246 242
f 242 246 247 243
f 243 247 248 244
f 245 241 244 248
f 249 250 251 252
f 253 256 255 254
f 249 253 254 250
f 250 254 255 251
f 251 255 256 252
f 253 249 252 256
